<mxfile host="app.diagrams.net" modified="2024-03-05T08:29:55.554Z" agent="Mozilla/5.0 (Windows NT 10.0; Win64; x64) AppleWebKit/537.36 (KHTML, like Gecko) Chrome/120.0.0.0 YaBrowser/24.1.0.0 Safari/537.36" etag="pZM_xaDxp1GQGYu619N7" version="24.0.1" type="device">
  <diagram id="AwrPjksga31Ln2HrV4Sn" name="Page-1">
    <mxGraphModel dx="1002" dy="575" grid="1" gridSize="10" guides="1" tooltips="1" connect="1" arrows="1" fold="1" page="1" pageScale="1" pageWidth="827" pageHeight="1169" math="0" shadow="0">
      <root>
        <mxCell id="0" />
        <mxCell id="1" parent="0" />
        <mxCell id="U-OuLkriL6suNVTtCKDr-8" value="" style="rounded=0;whiteSpace=wrap;html=1;" parent="1" vertex="1">
          <mxGeometry x="351" y="190" width="120" height="60" as="geometry" />
        </mxCell>
        <mxCell id="U-OuLkriL6suNVTtCKDr-1" value="- FCs: string&lt;br&gt;- Date of birth: datetime&lt;br&gt;- Login: string&lt;br&gt;- Password: string&lt;br&gt;+ Authorization boolean = False" style="rounded=0;whiteSpace=wrap;html=1;align=left;" parent="1" vertex="1">
          <mxGeometry x="120" y="320" width="120" height="80" as="geometry" />
        </mxCell>
        <mxCell id="U-OuLkriL6suNVTtCKDr-2" value="&lt;div style=&quot;text-align: left&quot;&gt;&lt;span&gt;+&amp;nbsp;&lt;/span&gt;&lt;span style=&quot;background-color: initial; text-align: center;&quot;&gt;Search for services&lt;/span&gt;&lt;/div&gt;&lt;div style=&quot;text-align: left&quot;&gt;&lt;span&gt;(in Services)&lt;/span&gt;&lt;/div&gt;&lt;div style=&quot;text-align: left&quot;&gt;&lt;span&gt;+&amp;nbsp;&lt;/span&gt;&lt;span style=&quot;background-color: initial; text-align: center;&quot;&gt;Search for services on request&lt;/span&gt;&lt;/div&gt;&lt;div style=&quot;text-align: left&quot;&gt;&lt;span&gt;(in Request)&lt;/span&gt;&lt;/div&gt;&lt;div style=&quot;text-align: left&quot;&gt;&lt;span&gt;+&amp;nbsp;&lt;/span&gt;&lt;span style=&quot;background-color: initial; text-align: center;&quot;&gt;To disclose the service&lt;/span&gt;&lt;/div&gt;&lt;div style=&quot;text-align: left&quot;&gt;&lt;span&gt;(in Service)&lt;/span&gt;&lt;/div&gt;&lt;div style=&quot;text-align: left&quot;&gt;&lt;span&gt;+ Leave a question&amp;nbsp;(out Question)&lt;/span&gt;&lt;/div&gt;&lt;div style=&quot;text-align: left&quot;&gt;&lt;span&gt;+ Register&amp;nbsp;()&lt;/span&gt;&lt;/div&gt;&lt;div style=&quot;text-align: left&quot;&gt;&lt;span&gt;+ Get authorized&amp;nbsp;()&amp;nbsp;&lt;/span&gt;&lt;/div&gt;" style="rounded=0;whiteSpace=wrap;html=1;" parent="1" vertex="1">
          <mxGeometry x="120" y="400" width="120" height="200" as="geometry" />
        </mxCell>
        <mxCell id="U-OuLkriL6suNVTtCKDr-3" value="" style="rounded=0;whiteSpace=wrap;html=1;" parent="1" vertex="1">
          <mxGeometry x="120" y="290" width="120" height="30" as="geometry" />
        </mxCell>
        <mxCell id="U-OuLkriL6suNVTtCKDr-4" value="An employee of an insurance company" style="rounded=0;whiteSpace=wrap;html=1;" parent="1" vertex="1">
          <mxGeometry x="580" y="270" width="120" height="30" as="geometry" />
        </mxCell>
        <mxCell id="U-OuLkriL6suNVTtCKDr-5" value="-FCs: String" style="rounded=0;whiteSpace=wrap;html=1;align=left;" parent="1" vertex="1">
          <mxGeometry x="580" y="300" width="120" height="60" as="geometry" />
        </mxCell>
        <mxCell id="U-OuLkriL6suNVTtCKDr-6" value="&lt;div style=&quot;text-align: left&quot;&gt;&lt;span&gt;+ Add a service&amp;nbsp;(out Service)&lt;/span&gt;&lt;/div&gt;&lt;div style=&quot;text-align: left&quot;&gt;&lt;span&gt;+ Edit the service&amp;nbsp;(inout Service)&lt;/span&gt;&lt;/div&gt;&lt;div style=&quot;text-align: left&quot;&gt;&lt;span&gt;+ Edit the question&amp;nbsp;(inout Question)&lt;/span&gt;&lt;/div&gt;&lt;div style=&quot;text-align: left&quot;&gt;&lt;span&gt;+&amp;nbsp;&lt;/span&gt;&lt;span style=&quot;background-color: initial; text-align: center;&quot;&gt;Delete a question&lt;/span&gt;&lt;/div&gt;&lt;div style=&quot;text-align: left&quot;&gt;&lt;span&gt;(in&amp;nbsp;&lt;/span&gt;Question&lt;span&gt;)&lt;/span&gt;&lt;/div&gt;&lt;div style=&quot;text-align: left&quot;&gt;&lt;span&gt;+ Answer the question&amp;nbsp;(inout Question)&lt;/span&gt;&lt;/div&gt;" style="rounded=0;whiteSpace=wrap;html=1;" parent="1" vertex="1">
          <mxGeometry x="580" y="360" width="120" height="190" as="geometry" />
        </mxCell>
        <mxCell id="U-OuLkriL6suNVTtCKDr-10" value="Services" style="rounded=0;whiteSpace=wrap;html=1;" parent="1" vertex="1">
          <mxGeometry x="354" y="310" width="120" height="30" as="geometry" />
        </mxCell>
        <mxCell id="U-OuLkriL6suNVTtCKDr-11" value="Question" style="rounded=0;whiteSpace=wrap;html=1;" parent="1" vertex="1">
          <mxGeometry x="357" y="470" width="120" height="30" as="geometry" />
        </mxCell>
        <mxCell id="U-OuLkriL6suNVTtCKDr-12" value="+ Content: String" style="rounded=0;whiteSpace=wrap;html=1;" parent="1" vertex="1">
          <mxGeometry x="357" y="500" width="120" height="30" as="geometry" />
        </mxCell>
        <mxCell id="U-OuLkriL6suNVTtCKDr-13" value="Request" style="rounded=0;whiteSpace=wrap;html=1;" parent="1" vertex="1">
          <mxGeometry x="150" y="660" width="120" height="30" as="geometry" />
        </mxCell>
        <mxCell id="U-OuLkriL6suNVTtCKDr-14" value="+ Title: String" style="rounded=0;whiteSpace=wrap;html=1;" parent="1" vertex="1">
          <mxGeometry x="150" y="690" width="120" height="30" as="geometry" />
        </mxCell>
        <mxCell id="U-OuLkriL6suNVTtCKDr-16" value="Life and health insurance" style="rounded=0;whiteSpace=wrap;html=1;" parent="1" vertex="1">
          <mxGeometry x="460" y="830" width="120" height="30" as="geometry" />
        </mxCell>
        <mxCell id="U-OuLkriL6suNVTtCKDr-17" value="Medical insurance" style="rounded=0;whiteSpace=wrap;html=1;" parent="1" vertex="1">
          <mxGeometry x="160" y="830" width="120" height="30" as="geometry" />
        </mxCell>
        <mxCell id="U-OuLkriL6suNVTtCKDr-18" value="Car insurance" style="rounded=0;whiteSpace=wrap;html=1;" parent="1" vertex="1">
          <mxGeometry x="10" y="825" width="130" height="40" as="geometry" />
        </mxCell>
        <mxCell id="U-OuLkriL6suNVTtCKDr-21" value="&quot;interface&quot;&lt;br&gt;Information system of the insurance company" style="text;html=1;strokeColor=none;fillColor=none;align=center;verticalAlign=middle;whiteSpace=wrap;rounded=0;" parent="1" vertex="1">
          <mxGeometry x="351" y="190" width="126" height="60" as="geometry" />
        </mxCell>
        <mxCell id="U-OuLkriL6suNVTtCKDr-24" value="Client" style="text;html=1;strokeColor=none;fillColor=none;align=center;verticalAlign=middle;whiteSpace=wrap;rounded=0;" parent="1" vertex="1">
          <mxGeometry x="120" y="285" width="120" height="40" as="geometry" />
        </mxCell>
        <mxCell id="U-OuLkriL6suNVTtCKDr-28" value="Real estate insurance" style="rounded=0;whiteSpace=wrap;html=1;" parent="1" vertex="1">
          <mxGeometry x="310" y="830" width="120" height="30" as="geometry" />
        </mxCell>
        <mxCell id="U-OuLkriL6suNVTtCKDr-30" value="+ Content: String" style="rounded=0;whiteSpace=wrap;html=1;" parent="1" vertex="1">
          <mxGeometry x="354" y="340" width="120" height="30" as="geometry" />
        </mxCell>
        <mxCell id="U-OuLkriL6suNVTtCKDr-32" value="" style="html=1;verticalAlign=bottom;endArrow=open;dashed=1;endSize=8;entryX=1;entryY=0.5;entryDx=0;entryDy=0;exitX=0.5;exitY=0;exitDx=0;exitDy=0;" parent="1" source="U-OuLkriL6suNVTtCKDr-4" target="U-OuLkriL6suNVTtCKDr-21" edge="1">
          <mxGeometry relative="1" as="geometry">
            <mxPoint x="600" y="280" as="sourcePoint" />
            <mxPoint x="530" y="210" as="targetPoint" />
            <Array as="points">
              <mxPoint x="640" y="220" />
              <mxPoint x="530" y="220" />
            </Array>
          </mxGeometry>
        </mxCell>
        <mxCell id="U-OuLkriL6suNVTtCKDr-33" value="&quot;Manages&quot;" style="text;html=1;align=center;verticalAlign=middle;resizable=0;points=[];autosize=1;" parent="1" vertex="1">
          <mxGeometry x="560" y="195" width="80" height="30" as="geometry" />
        </mxCell>
        <mxCell id="U-OuLkriL6suNVTtCKDr-34" value="&quot;Uses&quot;" style="html=1;verticalAlign=bottom;endArrow=open;dashed=1;endSize=8;entryX=0;entryY=0.5;entryDx=0;entryDy=0;exitX=0.417;exitY=0;exitDx=0;exitDy=0;exitPerimeter=0;" parent="1" source="U-OuLkriL6suNVTtCKDr-24" target="U-OuLkriL6suNVTtCKDr-21" edge="1">
          <mxGeometry relative="1" as="geometry">
            <mxPoint x="160" y="280" as="sourcePoint" />
            <mxPoint x="250" y="230" as="targetPoint" />
            <Array as="points">
              <mxPoint x="170" y="220" />
            </Array>
          </mxGeometry>
        </mxCell>
        <mxCell id="U-OuLkriL6suNVTtCKDr-35" value="" style="endArrow=none;html=1;edgeStyle=orthogonalEdgeStyle;exitX=1.001;exitY=0.131;exitDx=0;exitDy=0;exitPerimeter=0;entryX=0;entryY=0.75;entryDx=0;entryDy=0;" parent="1" source="U-OuLkriL6suNVTtCKDr-2" target="U-OuLkriL6suNVTtCKDr-10" edge="1">
          <mxGeometry relative="1" as="geometry">
            <mxPoint x="280" y="400" as="sourcePoint" />
            <mxPoint x="440" y="400" as="targetPoint" />
          </mxGeometry>
        </mxCell>
        <mxCell id="U-OuLkriL6suNVTtCKDr-36" value="1" style="edgeLabel;resizable=0;html=1;align=left;verticalAlign=bottom;" parent="U-OuLkriL6suNVTtCKDr-35" connectable="0" vertex="1">
          <mxGeometry x="-1" relative="1" as="geometry" />
        </mxCell>
        <mxCell id="U-OuLkriL6suNVTtCKDr-37" value="*" style="edgeLabel;resizable=0;html=1;align=right;verticalAlign=bottom;" parent="U-OuLkriL6suNVTtCKDr-35" connectable="0" vertex="1">
          <mxGeometry x="1" relative="1" as="geometry" />
        </mxCell>
        <mxCell id="U-OuLkriL6suNVTtCKDr-38" value="" style="endArrow=none;html=1;edgeStyle=orthogonalEdgeStyle;exitX=1.016;exitY=0.291;exitDx=0;exitDy=0;exitPerimeter=0;entryX=0;entryY=0.5;entryDx=0;entryDy=0;" parent="1" source="U-OuLkriL6suNVTtCKDr-2" target="U-OuLkriL6suNVTtCKDr-11" edge="1">
          <mxGeometry relative="1" as="geometry">
            <mxPoint x="170" y="400" as="sourcePoint" />
            <mxPoint x="330" y="400" as="targetPoint" />
          </mxGeometry>
        </mxCell>
        <mxCell id="U-OuLkriL6suNVTtCKDr-39" value="1" style="edgeLabel;resizable=0;html=1;align=left;verticalAlign=bottom;" parent="U-OuLkriL6suNVTtCKDr-38" connectable="0" vertex="1">
          <mxGeometry x="-1" relative="1" as="geometry" />
        </mxCell>
        <mxCell id="U-OuLkriL6suNVTtCKDr-40" value="*" style="edgeLabel;resizable=0;html=1;align=right;verticalAlign=bottom;" parent="U-OuLkriL6suNVTtCKDr-38" connectable="0" vertex="1">
          <mxGeometry x="1" relative="1" as="geometry" />
        </mxCell>
        <mxCell id="U-OuLkriL6suNVTtCKDr-41" value="" style="endArrow=none;html=1;edgeStyle=orthogonalEdgeStyle;exitX=1;exitY=0.75;exitDx=0;exitDy=0;entryX=0.005;entryY=0.147;entryDx=0;entryDy=0;entryPerimeter=0;" parent="1" source="U-OuLkriL6suNVTtCKDr-10" target="U-OuLkriL6suNVTtCKDr-6" edge="1">
          <mxGeometry relative="1" as="geometry">
            <mxPoint x="390" y="390" as="sourcePoint" />
            <mxPoint x="550" y="390" as="targetPoint" />
          </mxGeometry>
        </mxCell>
        <mxCell id="U-OuLkriL6suNVTtCKDr-42" value="*" style="edgeLabel;resizable=0;html=1;align=left;verticalAlign=bottom;" parent="U-OuLkriL6suNVTtCKDr-41" connectable="0" vertex="1">
          <mxGeometry x="-1" relative="1" as="geometry" />
        </mxCell>
        <mxCell id="U-OuLkriL6suNVTtCKDr-43" value="1" style="edgeLabel;resizable=0;html=1;align=right;verticalAlign=bottom;" parent="U-OuLkriL6suNVTtCKDr-41" connectable="0" vertex="1">
          <mxGeometry x="1" relative="1" as="geometry" />
        </mxCell>
        <mxCell id="U-OuLkriL6suNVTtCKDr-44" value="" style="endArrow=none;html=1;edgeStyle=orthogonalEdgeStyle;exitX=1;exitY=0.5;exitDx=0;exitDy=0;entryX=-0.003;entryY=0.432;entryDx=0;entryDy=0;entryPerimeter=0;" parent="1" source="U-OuLkriL6suNVTtCKDr-11" target="U-OuLkriL6suNVTtCKDr-6" edge="1">
          <mxGeometry relative="1" as="geometry">
            <mxPoint x="390" y="390" as="sourcePoint" />
            <mxPoint x="550" y="390" as="targetPoint" />
          </mxGeometry>
        </mxCell>
        <mxCell id="U-OuLkriL6suNVTtCKDr-45" value="*" style="edgeLabel;resizable=0;html=1;align=left;verticalAlign=bottom;" parent="U-OuLkriL6suNVTtCKDr-44" connectable="0" vertex="1">
          <mxGeometry x="-1" relative="1" as="geometry" />
        </mxCell>
        <mxCell id="U-OuLkriL6suNVTtCKDr-46" value="1" style="edgeLabel;resizable=0;html=1;align=right;verticalAlign=bottom;" parent="U-OuLkriL6suNVTtCKDr-44" connectable="0" vertex="1">
          <mxGeometry x="1" relative="1" as="geometry" />
        </mxCell>
        <mxCell id="U-OuLkriL6suNVTtCKDr-47" value="" style="endArrow=block;dashed=1;endFill=0;endSize=12;html=1;entryX=0.5;entryY=1;entryDx=0;entryDy=0;exitX=0.5;exitY=0;exitDx=0;exitDy=0;" parent="1" source="U-OuLkriL6suNVTtCKDr-10" target="U-OuLkriL6suNVTtCKDr-21" edge="1">
          <mxGeometry width="160" relative="1" as="geometry">
            <mxPoint x="390" y="390" as="sourcePoint" />
            <mxPoint x="550" y="390" as="targetPoint" />
          </mxGeometry>
        </mxCell>
        <mxCell id="U-OuLkriL6suNVTtCKDr-48" value="" style="endArrow=diamondThin;endFill=1;endSize=24;html=1;exitX=0.5;exitY=0;exitDx=0;exitDy=0;entryX=0.5;entryY=1;entryDx=0;entryDy=0;" parent="1" source="U-OuLkriL6suNVTtCKDr-11" target="U-OuLkriL6suNVTtCKDr-30" edge="1">
          <mxGeometry width="160" relative="1" as="geometry">
            <mxPoint x="390" y="390" as="sourcePoint" />
            <mxPoint x="550" y="390" as="targetPoint" />
          </mxGeometry>
        </mxCell>
        <mxCell id="U-OuLkriL6suNVTtCKDr-49" value="" style="endArrow=diamondThin;endFill=0;endSize=24;html=1;exitX=0.75;exitY=0;exitDx=0;exitDy=0;entryX=0.25;entryY=1;entryDx=0;entryDy=0;" parent="1" source="U-OuLkriL6suNVTtCKDr-13" target="U-OuLkriL6suNVTtCKDr-30" edge="1">
          <mxGeometry width="160" relative="1" as="geometry">
            <mxPoint x="390" y="390" as="sourcePoint" />
            <mxPoint x="550" y="390" as="targetPoint" />
          </mxGeometry>
        </mxCell>
        <mxCell id="U-OuLkriL6suNVTtCKDr-50" value="" style="endArrow=none;html=1;exitX=0.41;exitY=-0.122;exitDx=0;exitDy=0;exitPerimeter=0;entryX=0.564;entryY=1.024;entryDx=0;entryDy=0;entryPerimeter=0;" parent="1" source="U-OuLkriL6suNVTtCKDr-13" target="U-OuLkriL6suNVTtCKDr-2" edge="1">
          <mxGeometry width="50" height="50" relative="1" as="geometry">
            <mxPoint x="370" y="530" as="sourcePoint" />
            <mxPoint x="420" y="480" as="targetPoint" />
          </mxGeometry>
        </mxCell>
        <mxCell id="U-OuLkriL6suNVTtCKDr-51" value="1...5" style="text;html=1;strokeColor=none;fillColor=none;align=center;verticalAlign=middle;whiteSpace=wrap;rounded=0;" parent="1" vertex="1">
          <mxGeometry x="190" y="640" width="40" height="20" as="geometry" />
        </mxCell>
        <mxCell id="U-OuLkriL6suNVTtCKDr-52" value="1" style="text;html=1;align=center;verticalAlign=middle;resizable=0;points=[];autosize=1;" parent="1" vertex="1">
          <mxGeometry x="190" y="600" width="20" height="20" as="geometry" />
        </mxCell>
        <mxCell id="U-OuLkriL6suNVTtCKDr-54" value="" style="endArrow=block;endSize=16;endFill=0;html=1;exitX=0;exitY=0;exitDx=0;exitDy=0;entryX=1;entryY=0.5;entryDx=0;entryDy=0;" parent="1" source="U-OuLkriL6suNVTtCKDr-16" target="U-OuLkriL6suNVTtCKDr-14" edge="1">
          <mxGeometry width="160" relative="1" as="geometry">
            <mxPoint x="380" y="687.5" as="sourcePoint" />
            <mxPoint x="280" y="692.5" as="targetPoint" />
          </mxGeometry>
        </mxCell>
        <mxCell id="U-OuLkriL6suNVTtCKDr-55" value="" style="endArrow=block;endSize=16;endFill=0;html=1;exitX=0;exitY=0;exitDx=0;exitDy=0;entryX=1;entryY=1;entryDx=0;entryDy=0;" parent="1" source="U-OuLkriL6suNVTtCKDr-28" target="U-OuLkriL6suNVTtCKDr-14" edge="1">
          <mxGeometry width="160" relative="1" as="geometry">
            <mxPoint x="390" y="697.5" as="sourcePoint" />
            <mxPoint x="290" y="702.5" as="targetPoint" />
          </mxGeometry>
        </mxCell>
        <mxCell id="U-OuLkriL6suNVTtCKDr-56" value="" style="endArrow=block;endSize=16;endFill=0;html=1;exitX=0.25;exitY=0;exitDx=0;exitDy=0;entryX=0.818;entryY=0.981;entryDx=0;entryDy=0;entryPerimeter=0;" parent="1" source="U-OuLkriL6suNVTtCKDr-17" target="U-OuLkriL6suNVTtCKDr-14" edge="1">
          <mxGeometry width="160" relative="1" as="geometry">
            <mxPoint x="400" y="707.5" as="sourcePoint" />
            <mxPoint x="300" y="712.5" as="targetPoint" />
          </mxGeometry>
        </mxCell>
        <mxCell id="U-OuLkriL6suNVTtCKDr-57" value="" style="endArrow=block;endSize=16;endFill=0;html=1;exitX=0.705;exitY=-0.108;exitDx=0;exitDy=0;entryX=0.122;entryY=0.981;entryDx=0;entryDy=0;exitPerimeter=0;entryPerimeter=0;" parent="1" source="U-OuLkriL6suNVTtCKDr-18" target="U-OuLkriL6suNVTtCKDr-14" edge="1">
          <mxGeometry width="160" relative="1" as="geometry">
            <mxPoint x="410" y="717.5" as="sourcePoint" />
            <mxPoint x="310" y="722.5" as="targetPoint" />
          </mxGeometry>
        </mxCell>
      </root>
    </mxGraphModel>
  </diagram>
</mxfile>
